<?xml version="1.0" encoding="UTF-8" standalone="no"?>
<!-- Created with Inkscape (http://www.inkscape.org/) -->

<svg
   xmlns:dc="http://purl.org/dc/elements/1.1/"
   xmlns:cc="http://creativecommons.org/ns#"
   xmlns:rdf="http://www.w3.org/1999/02/22-rdf-syntax-ns#"
   xmlns:svg="http://www.w3.org/2000/svg"
   xmlns="http://www.w3.org/2000/svg"
   xmlns:sodipodi="http://sodipodi.sourceforge.net/DTD/sodipodi-0.dtd"
   xmlns:inkscape="http://www.inkscape.org/namespaces/inkscape"
   width="128"
   height="128"
   viewBox="0 0 128 128"
   id="svg2"
   version="1.1"
   inkscape:version="0.91 r13725"
   sodipodi:docname="icon.svg">
  <defs
     id="defs4" />
  <sodipodi:namedview
     id="base"
     pagecolor="#ffffff"
     bordercolor="#666666"
     borderopacity="1.0"
     inkscape:pageopacity="0"
     inkscape:pageshadow="2"
     inkscape:zoom="2.8"
     inkscape:cx="73.859581"
     inkscape:cy="70.591809"
     inkscape:document-units="px"
     inkscape:current-layer="layer1"
     showgrid="true"
     units="px"
     inkscape:window-width="877"
     inkscape:window-height="691"
     inkscape:window-x="-7"
     inkscape:window-y="0"
     inkscape:window-maximized="0">
    <inkscape:grid
       type="xygrid"
       id="grid4136"
       empspacing="8" />
  </sodipodi:namedview>
  <metadata
     id="metadata7">
    <rdf:RDF>
      <cc:Work
         rdf:about="">
        <dc:format>image/svg+xml</dc:format>
        <dc:type
           rdf:resource="http://purl.org/dc/dcmitype/StillImage" />
        <dc:title></dc:title>
      </cc:Work>
    </rdf:RDF>
  </metadata>
  <g
     inkscape:label="Layer 1"
     inkscape:groupmode="layer"
     id="layer1"
     transform="translate(0,-924.36216)">
    <rect
       style="opacity:1;fill:#800000;fill-opacity:1;stroke:#efefef;stroke-width:2;stroke-linecap:round;stroke-linejoin:round;stroke-miterlimit:4;stroke-dasharray:none;stroke-opacity:1"
       id="rect4138"
       width="112"
       height="112"
       x="8"
       y="932.36218" />
    <path
       style="opacity:1;fill:#ffffff;fill-opacity:1;stroke:#000000;stroke-width:2;stroke-linecap:round;stroke-linejoin:round;stroke-miterlimit:4;stroke-dasharray:none;stroke-opacity:0"
       id="path4146"
       d="m 15.494071,971.86235 c 1.704047,-1.65881 2.844295,-3.80237 4.099728,-5.79864 1.862397,-3.07742 3.542366,-6.25685 5.410626,-9.33079 1.827489,-3.00383 2.779165,-3.97535 6.880558,-5.31388 0.325692,-0.10629 0.533962,0.44388 0.725755,0.72776 0.257903,0.38174 0.403559,0.8283 0.605338,1.24245 1.11979,3.45906 1.73982,7.05863 2.778129,10.54148 0.223816,0.75076 0.489346,1.48844 0.73402,2.23266 0.58098,1.61003 1.281233,3.18738 2.284729,4.58308 0.294071,0.40901 0.833624,1.07943 1.314193,1.33682 0.194455,0.10415 0.427769,0.10796 0.641653,0.16194 1.255303,-0.30847 4.629853,-1.19575 -2.765544,1.69027 -0.523269,0.2042 0.910388,-0.66147 1.32916,-1.03582 1.726186,-1.54308 3.134511,-3.44443 4.582506,-5.23584 3.367482,-4.40893 6.708016,-8.83985 9.736801,-13.48997 1.893222,-2.97631 2.306054,-4.20125 6.850493,-4.97576 0.422906,-0.0721 0.291903,0.80841 0.395806,1.22464 0.144678,0.57958 0.232465,1.17189 0.348698,1.75784 0.861227,5.87776 2.129493,11.69392 3.646149,17.43546 0.608379,1.85399 1.101622,3.86219 2.239968,5.49241 0.330155,0.47281 0.940827,1.23177 1.660109,1.17429 0.325505,-0.026 0.587521,-0.2852 0.881281,-0.4278 -0.966454,0.45201 -1.841238,1.49287 -2.89936,1.35603 -0.700468,-0.0906 0.997825,-1.00228 1.451982,-1.54321 0.672999,-0.80158 2.438885,-3.27736 3.009615,-4.07636 1.576244,-2.20669 1.581702,-2.23339 3.134311,-4.47993 2.107503,-3.03289 4.016864,-6.20245 6.178983,-9.19724 1.805447,-1.94062 1.147906,-1.36299 5.583396,-3.58071 0.258636,-0.12932 0.592875,-0.0954 0.867476,-0.005 1.227371,0.40499 1.958973,1.9122 2.570872,2.8983 1.560281,2.73124 3.099229,5.49595 5.269709,7.7955 0.706152,0.51482 0.560654,0.61732 1.395724,0.52223 0.234478,-0.0267 0.472246,-0.0706 0.688428,-0.16524 0.265771,-0.11636 1.00109,-0.58429 0.739052,-0.45975 -3.351505,1.59287 -4.063462,2.53705 -2.109134,0.55252 2.115839,-2.45755 3.569384,-5.36599 5.068329,-8.21577 1.3938,-1.9106 1.39366,-2.14342 5.48393,-2.94198 0.43848,-0.0856 0.5016,0.74681 0.671,1.1602 0.22915,0.55918 0.36512,1.15276 0.51655,1.73779 0.4799,1.85399 0.7134,3.28429 1.07809,5.20363 0.6472,3.70499 1.3674,7.39902 1.82199,11.1349 0.17112,1.40634 0.27712,2.81988 0.43005,4.22831 0.042,0.38683 0.87163,7.51634 0.92713,7.99366 0.16826,1.12323 0.33652,2.24647 0.50478,3.3697 0,0 -3.31253,1.73669 -3.31253,1.73669 l 0,0 c -0.0988,-1.16088 -0.19769,-2.32176 -0.29653,-3.48264 -0.76338,-7.75381 -1.45817,-15.55983 -3.5776,-23.09001 -0.4656,-1.57196 -0.94525,-3.34292 -1.55138,-4.88651 -0.20089,-0.51158 -0.40179,-1.02924 -0.68817,-1.49835 -0.17084,-0.27984 -0.89137,-0.48279 -0.66756,-0.72238 1.02057,-1.09252 2.43866,-1.73296 3.70442,-2.52857 0.27476,-0.17271 -0.48103,0.43576 -0.72154,0.65364 -1.65388,2.80292 -3.10552,5.73953 -5.07587,8.34198 -2.191721,2.50062 -0.879647,1.20533 -6.048496,4.33188 -0.734818,0.44448 -1.676267,0.62902 -2.45385,0.15891 -0.26893,-0.16259 -0.469061,-0.41835 -0.703591,-0.62753 -1.862776,-2.54279 -3.253191,-5.38854 -5.08387,-7.95446 -0.622342,-0.80286 -1.413846,-2.15296 -2.584302,-2.27921 -0.242551,-0.0262 -0.916416,0.2861 -0.717348,0.14508 6.039483,-4.27842 3.87718,-2.45775 2.700939,-1.42546 -2.510484,2.98928 -4.633447,6.2848 -6.8806,9.47022 -1.494379,2.19583 -3.011596,4.37531 -4.511488,6.56736 -0.255921,0.37403 -2.015204,3.04056 -2.517314,3.41897 -1.658392,1.24983 -3.500039,2.23586 -5.250058,3.35379 -0.376383,0.0535 -0.755931,0.23275 -1.129149,0.16042 -0.701869,-0.13602 -1.306822,-1.07624 -1.579296,-1.59931 -0.945389,-1.81485 -1.217758,-3.92135 -1.754234,-5.86476 -1.219744,-5.75809 -2.447852,-11.51484 -4.106994,-17.16668 -0.192846,-0.52009 -0.353403,-1.05332 -0.578537,-1.56027 -0.12245,-0.27573 -0.681142,-0.57356 -0.460422,-0.77924 1.167258,-1.08772 2.696342,-1.70653 4.044179,-2.56032 0.238187,-0.15088 -0.514247,0.25384 -0.715231,0.45158 -0.271326,0.26696 -1.794473,2.39359 -1.888422,2.52276 -3.287121,4.55318 -6.704441,9.00948 -9.934175,13.60414 -0.458114,0.60419 -2.335254,3.09678 -2.887738,3.76433 -0.234937,0.28387 -1.827361,2.10267 -2.274181,2.38307 -1.672404,1.04953 -3.390469,2.03559 -5.170426,2.8901 -0.237601,0.11407 -0.526781,-0.019 -0.790172,-0.0286 -0.226091,-0.12005 -0.476689,-0.20238 -0.678274,-0.36016 -0.53116,-0.41572 -0.876583,-1.00405 -1.188725,-1.58534 -0.831153,-1.54784 -1.400614,-3.21924 -1.924631,-4.88995 -1.648006,-5.35023 0.231575,0.86978 -1.324157,-4.66645 -0.68293,-2.43027 -0.675097,-2.16648 -1.399268,-4.45784 -0.191429,-0.6057 -0.338203,-1.22578 -0.551188,-1.82424 -0.18085,-0.50817 -0.419122,-0.99403 -0.628682,-1.49105 -0.231547,-0.32683 -0.413955,-0.69475 -0.694639,-0.98049 -0.154253,-0.15703 -0.746887,-0.17365 -0.57951,-0.31661 1.11784,-0.95477 2.451758,-1.6257 3.721324,-2.36688 0.276852,-0.16163 -0.510969,0.39133 -0.733191,0.62238 -0.622775,0.64754 -1.099161,1.41581 -1.603683,2.15153 -1.957475,3.03327 -3.675658,6.20191 -5.451644,9.34316 -1.111832,1.87746 -2.138794,3.80716 -3.368229,5.61252 0,0 -4.897026,2.02841 -4.897026,2.02841 z"
       inkscape:connector-curvature="0" />
    <path
       style="opacity:1;fill:#ffffff;fill-opacity:1;stroke:#000000;stroke-width:2;stroke-linecap:round;stroke-linejoin:round;stroke-miterlimit:4;stroke-dasharray:none;stroke-opacity:0"
       id="path4180"
       d="m 24.118811,990.35828 c -0.193766,2.28255 -0.242239,4.57614 -0.321299,6.86499 -0.05974,4.10433 -0.09978,8.20883 -0.04033,12.31323 3.04e-4,2.9784 0.138235,5.9543 0.168469,8.932 0.01754,1.5518 0.105941,3.1021 0.127561,4.6537 0.0042,0.5072 0.01871,1.0137 0.04089,1.5204 0,0 -4.531339,2.3547 -4.531339,2.3547 l 0,0 c -0.06019,-0.5238 -0.07839,-1.0367 -0.04455,-1.5644 0.02191,-1.5949 0.109539,-3.1885 0.127561,-4.7837 0.0305,-3.035 0.167237,-6.0681 0.168469,-9.1037 0.05839,-4.0907 0.02084,-8.1815 -0.04033,-12.27211 -0.07803,-2.17964 -0.122542,-4.365 -0.3213,-6.53756 0,0 4.666194,-2.37755 4.666194,-2.37755 z"
       inkscape:connector-curvature="0" />
    <path
       style="opacity:1;fill:#ffffff;fill-opacity:1;stroke:#000000;stroke-width:2;stroke-linecap:round;stroke-linejoin:round;stroke-miterlimit:4;stroke-dasharray:none;stroke-opacity:0"
       id="path4182"
       d="m 46.211568,1006.2936 c 0.26185,-1.4382 0.696599,-2.8391 1.076729,-4.2493 0.520961,-1.7189 1.146152,-3.42296 1.890647,-5.05964 0.486518,-1.01816 1.246501,-1.82156 2.157022,-2.46953 0.581404,0.6838 4.358862,-3.91139 6.392223,-2.54678 0.438309,0.29415 0.721787,0.74047 1.036801,1.14746 1.190804,1.48101 1.603997,3.29032 1.850081,5.13024 0.149744,2.44315 -0.396633,4.82195 -1.185594,7.11535 -0.825129,1.9074 -1.822079,3.7581 -2.90391,5.5341 -0.848943,1.5009 -1.646848,3.0248 -2.558703,4.4894 -2.07154,3.0252 -3.757071,3.4644 -7.334466,5.551 -0.159448,0.083 -0.633627,0.3375 -0.478342,0.2475 1.326526,-0.7694 2.658257,-1.5299 3.992543,-2.2858 0.06183,-0.035 -0.10361,0.1158 -0.174327,0.1228 -0.03596,0 -0.07154,-0.09 -0.03729,-0.1018 0.07881,-0.026 0.166267,0.013 0.247467,0.031 0.184559,0.041 0.365571,0.096 0.548356,0.1438 1.350434,0.2747 2.730902,0.3999 4.083095,0.6576 0.527911,0.1006 2.243382,0.5423 2.727486,0.6645 3.042876,0.7186 6.142975,1.1626 9.243579,1.544 2.978205,0.2879 5.913416,0.8793 8.889306,1.2019 1.213718,0.1074 0.641319,0.088 1.716363,0.08 0,0 -4.075189,2.9283 -4.075189,2.9283 l 0,0 c -0.99133,-0.1161 -0.462503,-0.044 -1.58524,-0.225 -2.886382,-0.4942 -5.763157,-1.0866 -8.683996,-1.3368 -3.133183,-0.3709 -6.264082,-0.8187 -9.33845,-1.5391 -2.361873,-0.5067 -4.741908,-0.8576 -7.145521,-1.1007 -0.392376,-0.095 -0.917249,-0.1584 -1.225751,-0.4739 -0.210707,-0.2156 -0.274894,-0.5621 0.01675,-0.742 2.286703,-1.4104 3.413474,-2.0218 5.235849,-3.0185 -7.386549,4.3275 -4.045931,2.6072 -2.747795,1.4457 0.593254,-0.5308 1.092329,-1.1505 1.56676,-1.7868 0.940575,-1.4666 1.798636,-2.972 2.619896,-4.5089 0.506331,-0.8212 0.963117,-1.6587 1.443728,-2.4939 0.571557,-0.9932 1.239507,-1.9362 1.645426,-3.0185 0.152652,-0.3937 0.332517,-0.7778 0.457955,-1.181 0.564526,-1.8145 0.796504,-3.7582 0.677998,-5.6503 -0.221253,-1.74843 -0.561136,-3.47283 -1.744332,-4.85291 -0.380427,-0.37491 -0.55087,-0.62912 -1.031201,-0.83292 -1.531674,-0.64988 -6.327175,3.35357 2.645393,-2.19471 -0.985765,0.53237 -1.78703,1.29774 -2.368346,2.26033 -0.896995,1.57119 -1.471397,3.30111 -2.04576,5.01053 -0.319878,1.30528 -0.728557,2.61218 -0.777525,3.95818 0,0 -4.719721,2.4049 -4.719721,2.4049 z"
       inkscape:connector-curvature="0" />
    <path
       style="opacity:1;fill:#ffffff;fill-opacity:1;stroke:#000000;stroke-width:2;stroke-linecap:round;stroke-linejoin:round;stroke-miterlimit:4;stroke-dasharray:none;stroke-opacity:0"
       id="path4184"
       d="m 87.282997,1003.7936 c 0.506208,-1.4877 1.638065,-2.7138 2.637811,-3.89985 2.035181,-2.4388 4.747964,-4.24892 7.816226,-5.22363 1.603889,-0.13111 2.079786,0.71209 2.440336,2.12117 0.21507,1.7799 0.25454,3.58051 0.26891,5.37231 -0.0336,1.3726 0.27399,2.6587 -0.43462,3.8942 -0.002,0.224 -0.330055,0.2846 -0.390068,0.4825 -0.10779,0.3554 1.130378,1.7065 1.333948,1.957 0.76335,1.0629 1.50942,2.175 1.9162,3.4326 0.20656,0.6386 0.32343,1.3923 0.44462,2.0496 0.33553,2.0751 0.33001,4.183 0.16711,6.2727 -0.17515,2.1837 -0.95672,3.321 -2.68793,4.5938 -3.268506,1.8921 -5.467853,3.8871 -9.162658,3.3327 -0.240287,-0.087 -0.496393,-0.1393 -0.720861,-0.2616 -1.142778,-0.6226 -1.9571,-1.9064 -2.531329,-3.0285 -0.355068,-0.7161 -0.497592,-1.487 -0.607004,-2.2696 0,0 4.525321,-2.3726 4.525321,-2.3726 l 0,0 c 0.06868,0.7352 0.172033,1.4661 0.458224,2.1541 0.612829,1.3033 1.462519,2.5628 2.957526,2.8846 0.785955,0.064 1.514141,0.056 2.290708,-0.1172 1.725611,-0.3843 4.759623,-2.2776 -1.798372,1.4787 1.822425,-1.1455 2.592459,-2.0526 2.924993,-4.228 0.222765,-2.0478 0.135555,-4.1051 -0.120125,-6.1484 -0.346991,-1.9764 -0.957486,-3.6751 -2.273999,-5.2312 -0.458608,-0.5022 -1.784876,-1.6692 -1.889649,-2.3575 -0.0358,-0.2352 0.324391,-0.4893 0.440253,-0.5962 0.282991,-0.2722 0.436079,-0.3615 0.579757,-0.7546 0.336957,-0.9219 0.0349,-1.9638 0.159217,-2.9134 4.56e-4,-1.7406 0.06598,-3.5009 -0.283642,-5.21653 -0.339555,-1.16489 -0.685091,-1.72981 -2.002137,-1.41269 -1.872151,0.75258 -0.826161,0.36469 3.153844,-1.97399 0.206232,-0.12118 -0.41686,0.23668 -0.610678,0.37687 -0.694289,0.50217 -1.269864,1.1508 -1.837723,1.78499 -0.911102,1.06172 -1.842882,2.13675 -2.444488,3.41275 0,0 -4.719721,2.4049 -4.719721,2.4049 z"
       inkscape:connector-curvature="0" />
  </g>
</svg>
